# xmcd
#
# Track frame offsets:
#	150
#	7462
#	12850
#	23987
#	30387
#	45325
#	56752
#	68412
#	76825
#	87050
#	100587
#	111162
#	118775
#	127337
#	137687
#	153787
#
# Disc length: 2342
#
# Revision: 1
# Processed by: cddbd v1.5.1PL0 Copyright (c) Steve Scherf et al.
# Submitted via: dBpowerAMP V4.0
# Normalized: r0:TRMNUM
#
DISCID=c2092410
DTITLE=Marty Robbins - In Concert
DYEAR=1900
DGENRE=Country
TTITLE0=Ribbon Of Darkness
TTITLE1=A White Sports Coat
TTITLE2=Devil Woman
TTITLE3=Big Iron
TTITLE4=Don't Worry
TTITLE5=Touch Me With Magic
TTITLE6=Jenny
TTITLE7=That's Alright Mama
TTITLE8=Love Me
TTITLE9=Big Boss Man
TTITLE10=Among My Souvenirs
TTITLE11=Foggy mountain Breakdown
TTITLE12=Jambalaya
TTITLE13=Crime Bells
TTITLE14=My Woman,My Woman,My Wife
TTITLE15=El Paso
EXTD=
EXTT0=
EXTT1=
EXTT2=
EXTT3=
EXTT4=
EXTT5=
EXTT6=
EXTT7=
EXTT8=
EXTT9=
EXTT10=
EXTT11=
EXTT12=
EXTT13=
EXTT14=
EXTT15=
PLAYORDER=
